{
  "asset": {
    "generator": "o2sclpy v0.931a1",
    "version": "2.0",
    "copyright": "Copyright (C) 2023-2025, Andrew W. Steiner"
  },
  "scene": 0,
  "scenes": [
    {
      "name": "Scene",
      "nodes": [
        0,
        1,
        2,
        3,
        4,
        5,
        6
      ]
    }
  ],
  "nodes": [
    {
      "mesh": 0,
      "name": "plot",
      "rotation": [
        0.7071068286895752,
        0,
        0,
        -0.7071068286895752
      ]
    },
    {
      "mesh": 1,
      "name": "x_axis1",
      "rotation": [
        0.7071068286895752,
        0,
        0,
        -0.7071068286895752
      ]
    },
    {
      "mesh": 2,
      "name": "y_axis1",
      "rotation": [
        0.7071068286895752,
        0,
        0,
        -0.7071068286895752
      ]
    },
    {
      "mesh": 3,
      "name": "z_axis1",
      "rotation": [
        0.7071068286895752,
        0,
        0,
        -0.7071068286895752
      ]
    },
    {
      "mesh": 4,
      "name": "x_title",
      "rotation": [
        0.7071068286895752,
        0,
        0,
        -0.7071068286895752
      ]
    },
    {
      "mesh": 5,
      "name": "y_title",
      "rotation": [
        0.7071068286895752,
        0,
        0,
        -0.7071068286895752
      ]
    },
    {
      "mesh": 6,
      "name": "z_title",
      "rotation": [
        0.7071068286895752,
        0,
        0,
        -0.7071068286895752
      ]
    }
  ],
  "meshes": [
    {
      "name": "plot",
      "primitives": [
        {
          "attributes": {
            "POSITION": 0
          },
          "indices": 1,
          "material": 0
        }
      ]
    },
    {
      "name": "x_axis1",
      "primitives": [
        {
          "attributes": {
            "POSITION": 2,
            "NORMAL": 3
          },
          "indices": 4,
          "material": 0
        }
      ]
    },
    {
      "name": "y_axis1",
      "primitives": [
        {
          "attributes": {
            "POSITION": 5,
            "NORMAL": 6
          },
          "indices": 7,
          "material": 0
        }
      ]
    },
    {
      "name": "z_axis1",
      "primitives": [
        {
          "attributes": {
            "POSITION": 8,
            "NORMAL": 9
          },
          "indices": 10,
          "material": 0
        }
      ]
    },
    {
      "name": "x_title",
      "primitives": [
        {
          "attributes": {
            "POSITION": 11,
            "NORMAL": 12,
            "TEXCOORD_0": 13
          },
          "indices": 14,
          "material": 1
        },
        {
          "attributes": {
            "POSITION": 15,
            "NORMAL": 16
          },
          "indices": 17,
          "material": 0
        }
      ]
    },
    {
      "name": "y_title",
      "primitives": [
        {
          "attributes": {
            "POSITION": 18,
            "NORMAL": 19,
            "TEXCOORD_0": 20
          },
          "indices": 21,
          "material": 2
        },
        {
          "attributes": {
            "POSITION": 22,
            "NORMAL": 23
          },
          "indices": 24,
          "material": 0
        }
      ]
    },
    {
      "name": "z_title",
      "primitives": [
        {
          "attributes": {
            "POSITION": 25,
            "NORMAL": 26,
            "TEXCOORD_0": 27
          },
          "indices": 28,
          "material": 3
        },
        {
          "attributes": {
            "POSITION": 29,
            "NORMAL": 30
          },
          "indices": 31,
          "material": 0
        }
      ]
    }
  ],
  "materials": [
    {
      "name": "white",
      "pbrMetallicRoughness": {
        "baseColorFactor": [
          1,
          1,
          1,
          1.0
        ]
      },
      "doubleSided": true
    },
    {
      "name": "mat_xtitle",
      "pbrMetallicRoughness": {
        "baseColorTexture": {
          "index": 0
        }
      },
      "doubleSided": true
    },
    {
      "name": "mat_ytitle",
      "pbrMetallicRoughness": {
        "baseColorTexture": {
          "index": 1
        }
      },
      "doubleSided": true
    },
    {
      "name": "mat_ztitle",
      "pbrMetallicRoughness": {
        "baseColorTexture": {
          "index": 2
        }
      },
      "doubleSided": true
    }
  ],
  "accessors": [
    {
      "bufferView": 0,
      "componentType": 5126,
      "count": 6000,
      "max": [
        1.0,
        1.0,
        1.0
      ],
      "min": [
        0.0,
        0.0,
        0.0
      ],
      "type": "VEC3"
    },
    {
      "bufferView": 1,
      "componentType": 5123,
      "count": 6000,
      "type": "SCALAR"
    },
    {
      "bufferView": 2,
      "componentType": 5126,
      "count": 180,
      "max": [
        1.0,
        0.037500000000000006,
        0.037500000000000006
      ],
      "min": [
        0.0,
        -0.037500000000000006,
        -0.037500000000000006
      ],
      "type": "VEC3"
    },
    {
      "bufferView": 3,
      "componentType": 5126,
      "count": 180,
      "type": "VEC3"
    },
    {
      "bufferView": 4,
      "componentType": 5123,
      "count": 180,
      "type": "SCALAR"
    },
    {
      "bufferView": 5,
      "componentType": 5126,
      "count": 180,
      "max": [
        0.037500000000000006,
        1.0,
        0.037500000000000006
      ],
      "min": [
        -0.037500000000000006,
        0.0,
        -0.037500000000000006
      ],
      "type": "VEC3"
    },
    {
      "bufferView": 6,
      "componentType": 5126,
      "count": 180,
      "type": "VEC3"
    },
    {
      "bufferView": 7,
      "componentType": 5123,
      "count": 180,
      "type": "SCALAR"
    },
    {
      "bufferView": 8,
      "componentType": 5126,
      "count": 180,
      "max": [
        0.037500000000000006,
        0.037500000000000006,
        1.0
      ],
      "min": [
        -0.037500000000000006,
        -0.037500000000000006,
        0.0
      ],
      "type": "VEC3"
    },
    {
      "bufferView": 9,
      "componentType": 5126,
      "count": 180,
      "type": "VEC3"
    },
    {
      "bufferView": 10,
      "componentType": 5123,
      "count": 180,
      "type": "SCALAR"
    },
    {
      "bufferView": 11,
      "componentType": 5126,
      "count": 24,
      "max": [
        0.7000000000000001,
        -0.05,
        -0.05
      ],
      "min": [
        0.29999999999999993,
        -0.15000000000000002,
        -0.15000000000000002
      ],
      "type": "VEC3"
    },
    {
      "bufferView": 12,
      "componentType": 5126,
      "count": 24,
      "type": "VEC3"
    },
    {
      "bufferView": 13,
      "componentType": 5126,
      "count": 24,
      "type": "VEC2"
    },
    {
      "bufferView": 14,
      "componentType": 5123,
      "count": 24,
      "type": "SCALAR"
    },
    {
      "bufferView": 15,
      "componentType": 5126,
      "count": 12,
      "max": [
        0.7000000000000001,
        -0.05,
        -0.05
      ],
      "min": [
        0.29999999999999993,
        -0.15000000000000002,
        -0.15000000000000002
      ],
      "type": "VEC3"
    },
    {
      "bufferView": 16,
      "componentType": 5126,
      "count": 12,
      "type": "VEC3"
    },
    {
      "bufferView": 17,
      "componentType": 5123,
      "count": 12,
      "type": "SCALAR"
    },
    {
      "bufferView": 18,
      "componentType": 5126,
      "count": 24,
      "max": [
        -0.05,
        0.7000000000000001,
        -0.05
      ],
      "min": [
        -0.15000000000000002,
        0.29999999999999993,
        -0.15000000000000002
      ],
      "type": "VEC3"
    },
    {
      "bufferView": 19,
      "componentType": 5126,
      "count": 24,
      "type": "VEC3"
    },
    {
      "bufferView": 20,
      "componentType": 5126,
      "count": 24,
      "type": "VEC2"
    },
    {
      "bufferView": 21,
      "componentType": 5123,
      "count": 24,
      "type": "SCALAR"
    },
    {
      "bufferView": 22,
      "componentType": 5126,
      "count": 12,
      "max": [
        -0.05,
        0.7000000000000001,
        -0.05
      ],
      "min": [
        -0.15000000000000002,
        0.29999999999999993,
        -0.15000000000000002
      ],
      "type": "VEC3"
    },
    {
      "bufferView": 23,
      "componentType": 5126,
      "count": 12,
      "type": "VEC3"
    },
    {
      "bufferView": 24,
      "componentType": 5123,
      "count": 12,
      "type": "SCALAR"
    },
    {
      "bufferView": 25,
      "componentType": 5126,
      "count": 24,
      "max": [
        -0.05,
        -0.05,
        0.7000000000000001
      ],
      "min": [
        -0.15000000000000002,
        -0.15000000000000002,
        0.29999999999999993
      ],
      "type": "VEC3"
    },
    {
      "bufferView": 26,
      "componentType": 5126,
      "count": 24,
      "type": "VEC3"
    },
    {
      "bufferView": 27,
      "componentType": 5126,
      "count": 24,
      "type": "VEC2"
    },
    {
      "bufferView": 28,
      "componentType": 5123,
      "count": 24,
      "type": "SCALAR"
    },
    {
      "bufferView": 29,
      "componentType": 5126,
      "count": 12,
      "max": [
        -0.05,
        -0.05,
        0.7000000000000001
      ],
      "min": [
        -0.15000000000000002,
        -0.15000000000000002,
        0.29999999999999993
      ],
      "type": "VEC3"
    },
    {
      "bufferView": 30,
      "componentType": 5126,
      "count": 12,
      "type": "VEC3"
    },
    {
      "bufferView": 31,
      "componentType": 5123,
      "count": 12,
      "type": "SCALAR"
    }
  ],
  "bufferViews": [
    {
      "buffer": 0,
      "byteLength": 72000,
      "byteOffset": 0,
      "target": 34962
    },
    {
      "buffer": 0,
      "byteLength": 12000,
      "byteOffset": 72000,
      "target": 34963
    },
    {
      "buffer": 0,
      "byteLength": 2160,
      "byteOffset": 84000,
      "target": 34962
    },
    {
      "buffer": 0,
      "byteLength": 2160,
      "byteOffset": 86160,
      "target": 34962
    },
    {
      "buffer": 0,
      "byteLength": 360,
      "byteOffset": 88320,
      "target": 34963
    },
    {
      "buffer": 0,
      "byteLength": 2160,
      "byteOffset": 88680,
      "target": 34962
    },
    {
      "buffer": 0,
      "byteLength": 2160,
      "byteOffset": 90840,
      "target": 34962
    },
    {
      "buffer": 0,
      "byteLength": 360,
      "byteOffset": 93000,
      "target": 34963
    },
    {
      "buffer": 0,
      "byteLength": 2160,
      "byteOffset": 93360,
      "target": 34962
    },
    {
      "buffer": 0,
      "byteLength": 2160,
      "byteOffset": 95520,
      "target": 34962
    },
    {
      "buffer": 0,
      "byteLength": 360,
      "byteOffset": 97680,
      "target": 34963
    },
    {
      "buffer": 0,
      "byteLength": 288,
      "byteOffset": 98040,
      "target": 34962
    },
    {
      "buffer": 0,
      "byteLength": 288,
      "byteOffset": 98328,
      "target": 34962
    },
    {
      "buffer": 0,
      "byteLength": 192,
      "byteOffset": 98616,
      "target": 34962
    },
    {
      "buffer": 0,
      "byteLength": 48,
      "byteOffset": 98808,
      "target": 34963
    },
    {
      "buffer": 0,
      "byteLength": 144,
      "byteOffset": 98856,
      "target": 34962
    },
    {
      "buffer": 0,
      "byteLength": 144,
      "byteOffset": 99000,
      "target": 34962
    },
    {
      "buffer": 0,
      "byteLength": 24,
      "byteOffset": 99144,
      "target": 34963
    },
    {
      "buffer": 0,
      "byteLength": 288,
      "byteOffset": 99168,
      "target": 34962
    },
    {
      "buffer": 0,
      "byteLength": 288,
      "byteOffset": 99456,
      "target": 34962
    },
    {
      "buffer": 0,
      "byteLength": 192,
      "byteOffset": 99744,
      "target": 34962
    },
    {
      "buffer": 0,
      "byteLength": 48,
      "byteOffset": 99936,
      "target": 34963
    },
    {
      "buffer": 0,
      "byteLength": 144,
      "byteOffset": 99984,
      "target": 34962
    },
    {
      "buffer": 0,
      "byteLength": 144,
      "byteOffset": 100128,
      "target": 34962
    },
    {
      "buffer": 0,
      "byteLength": 24,
      "byteOffset": 100272,
      "target": 34963
    },
    {
      "buffer": 0,
      "byteLength": 288,
      "byteOffset": 100296,
      "target": 34962
    },
    {
      "buffer": 0,
      "byteLength": 288,
      "byteOffset": 100584,
      "target": 34962
    },
    {
      "buffer": 0,
      "byteLength": 192,
      "byteOffset": 100872,
      "target": 34962
    },
    {
      "buffer": 0,
      "byteLength": 48,
      "byteOffset": 101064,
      "target": 34963
    },
    {
      "buffer": 0,
      "byteLength": 144,
      "byteOffset": 101112,
      "target": 34962
    },
    {
      "buffer": 0,
      "byteLength": 144,
      "byteOffset": 101256,
      "target": 34962
    },
    {
      "buffer": 0,
      "byteLength": 24,
      "byteOffset": 101400,
      "target": 34963
    }
  ],
  "buffers": [
    {
      "byteLength": 101424,
      "uri": "den_plot.bin"
    }
  ],
  "textures": [
    {
      "source": 0
    },
    {
      "source": 1
    },
    {
      "source": 2
    }
  ],
  "images": [
    {
      "mimeType": "image/png",
      "name": "mat_xtitle",
      "uri": "den_plot_xtitle.png"
    },
    {
      "mimeType": "image/png",
      "name": "mat_ytitle",
      "uri": "den_plot_ytitle.png"
    },
    {
      "mimeType": "image/png",
      "name": "mat_ztitle",
      "uri": "den_plot_ztitle.png"
    }
  ]
}