{
  "asset": {
    "generator": "o2sclpy v0.930a1",
    "version": "2.0",
    "copyright": "Copyright (C) 2023-2024, Andrew W. Steiner"
  },
  "scene": 0,
  "scenes": [
    {
      "name": "Scene",
      "nodes": [
        0,
        1,
        2,
        3,
        4,
        5,
        6
      ]
    }
  ],
  "nodes": [
    {
      "mesh": 0,
      "name": "scatter",
      "rotation": [
        0.7071068286895752,
        0,
        0,
        -0.7071068286895752
      ]
    },
    {
      "mesh": 1,
      "name": "x_axis",
      "rotation": [
        0.7071068286895752,
        0,
        0,
        -0.7071068286895752
      ]
    },
    {
      "mesh": 2,
      "name": "y_axis",
      "rotation": [
        0.7071068286895752,
        0,
        0,
        -0.7071068286895752
      ]
    },
    {
      "mesh": 3,
      "name": "z_axis",
      "rotation": [
        0.7071068286895752,
        0,
        0,
        -0.7071068286895752
      ]
    },
    {
      "mesh": 4,
      "name": "x_title",
      "rotation": [
        0.7071068286895752,
        0,
        0,
        -0.7071068286895752
      ]
    },
    {
      "mesh": 5,
      "name": "y_title",
      "rotation": [
        0.7071068286895752,
        0,
        0,
        -0.7071068286895752
      ]
    },
    {
      "mesh": 6,
      "name": "z_title",
      "rotation": [
        0.7071068286895752,
        0,
        0,
        -0.7071068286895752
      ]
    }
  ],
  "meshes": [
    {
      "name": "scatter",
      "primitives": [
        {
          "attributes": {
            "POSITION": 0,
            "NORMAL": 1
          },
          "indices": 2
        }
      ]
    },
    {
      "name": "x_axis",
      "primitives": [
        {
          "attributes": {
            "POSITION": 3,
            "NORMAL": 4
          },
          "indices": 5
        }
      ]
    },
    {
      "name": "y_axis",
      "primitives": [
        {
          "attributes": {
            "POSITION": 6,
            "NORMAL": 7
          },
          "indices": 8
        }
      ]
    },
    {
      "name": "z_axis",
      "primitives": [
        {
          "attributes": {
            "POSITION": 9,
            "NORMAL": 10
          },
          "indices": 11
        }
      ]
    },
    {
      "name": "x_title",
      "primitives": [
        {
          "attributes": {
            "POSITION": 12,
            "NORMAL": 13,
            "TEXCOORD_0": 14
          },
          "indices": 15,
          "material": 1
        },
        {
          "attributes": {
            "POSITION": 16,
            "NORMAL": 17
          },
          "indices": 18,
          "material": 0
        }
      ]
    },
    {
      "name": "y_title",
      "primitives": [
        {
          "attributes": {
            "POSITION": 19,
            "NORMAL": 20,
            "TEXCOORD_0": 21
          },
          "indices": 22,
          "material": 2
        },
        {
          "attributes": {
            "POSITION": 23,
            "NORMAL": 24
          },
          "indices": 25,
          "material": 0
        }
      ]
    },
    {
      "name": "z_title",
      "primitives": [
        {
          "attributes": {
            "POSITION": 26,
            "NORMAL": 27,
            "TEXCOORD_0": 28
          },
          "indices": 29,
          "material": 3
        },
        {
          "attributes": {
            "POSITION": 30,
            "NORMAL": 31
          },
          "indices": 32,
          "material": 0
        }
      ]
    }
  ],
  "materials": [
    {
      "doubleSided": true,
      "name": "white",
      "pbrMetallicRoughness": {
        "baseColorFactor": [
          1,
          1,
          1,
          1
        ],
        "metallicFactor": 0
      }
    },
    {
      "doubleSided": true,
      "name": "mat_xtitle",
      "pbrMetallicRoughness": {
        "baseColorTexture": {
          "index": 0
        },
        "metallicFactor": 0
      }
    },
    {
      "doubleSided": true,
      "name": "mat_ytitle",
      "pbrMetallicRoughness": {
        "baseColorTexture": {
          "index": 1
        },
        "metallicFactor": 0
      }
    },
    {
      "doubleSided": true,
      "name": "mat_ztitle",
      "pbrMetallicRoughness": {
        "baseColorTexture": {
          "index": 2
        },
        "metallicFactor": 0
      }
    }
  ],
  "accessors": [
    {
      "bufferView": 0,
      "componentType": 5126,
      "count": 2400,
      "max": [
        1.04,
        1.04,
        1.04
      ],
      "min": [
        -0.04,
        -0.04,
        -0.04
      ],
      "type": "VEC3"
    },
    {
      "bufferView": 1,
      "componentType": 5126,
      "count": 2400,
      "type": "VEC3"
    },
    {
      "bufferView": 2,
      "componentType": 5123,
      "count": 2400,
      "type": "SCALAR"
    },
    {
      "bufferView": 3,
      "componentType": 5126,
      "count": 180,
      "max": [
        1.0,
        0.037500000000000006,
        0.037500000000000006
      ],
      "min": [
        0.0,
        -0.037500000000000006,
        -0.037500000000000006
      ],
      "type": "VEC3"
    },
    {
      "bufferView": 4,
      "componentType": 5126,
      "count": 180,
      "type": "VEC3"
    },
    {
      "bufferView": 5,
      "componentType": 5123,
      "count": 180,
      "type": "SCALAR"
    },
    {
      "bufferView": 6,
      "componentType": 5126,
      "count": 180,
      "max": [
        0.037500000000000006,
        1.0,
        0.037500000000000006
      ],
      "min": [
        -0.037500000000000006,
        0.0,
        -0.037500000000000006
      ],
      "type": "VEC3"
    },
    {
      "bufferView": 7,
      "componentType": 5126,
      "count": 180,
      "type": "VEC3"
    },
    {
      "bufferView": 8,
      "componentType": 5123,
      "count": 180,
      "type": "SCALAR"
    },
    {
      "bufferView": 9,
      "componentType": 5126,
      "count": 180,
      "max": [
        0.037500000000000006,
        0.037500000000000006,
        1.0
      ],
      "min": [
        -0.037500000000000006,
        -0.037500000000000006,
        0.0
      ],
      "type": "VEC3"
    },
    {
      "bufferView": 10,
      "componentType": 5126,
      "count": 180,
      "type": "VEC3"
    },
    {
      "bufferView": 11,
      "componentType": 5123,
      "count": 180,
      "type": "SCALAR"
    },
    {
      "bufferView": 12,
      "componentType": 5126,
      "count": 24,
      "max": [
        0.7000000000000001,
        -0.05,
        -0.05
      ],
      "min": [
        0.29999999999999993,
        -0.15000000000000002,
        -0.15000000000000002
      ],
      "type": "VEC3"
    },
    {
      "bufferView": 13,
      "componentType": 5126,
      "count": 24,
      "type": "VEC3"
    },
    {
      "bufferView": 14,
      "componentType": 5126,
      "count": 24,
      "type": "VEC2"
    },
    {
      "bufferView": 15,
      "componentType": 5123,
      "count": 24,
      "type": "SCALAR"
    },
    {
      "bufferView": 16,
      "componentType": 5126,
      "count": 12,
      "max": [
        0.7000000000000001,
        -0.05,
        -0.05
      ],
      "min": [
        0.29999999999999993,
        -0.15000000000000002,
        -0.15000000000000002
      ],
      "type": "VEC3"
    },
    {
      "bufferView": 17,
      "componentType": 5126,
      "count": 12,
      "type": "VEC3"
    },
    {
      "bufferView": 18,
      "componentType": 5123,
      "count": 12,
      "type": "SCALAR"
    },
    {
      "bufferView": 19,
      "componentType": 5126,
      "count": 24,
      "max": [
        -0.05,
        0.7000000000000001,
        -0.05
      ],
      "min": [
        -0.15000000000000002,
        0.29999999999999993,
        -0.15000000000000002
      ],
      "type": "VEC3"
    },
    {
      "bufferView": 20,
      "componentType": 5126,
      "count": 24,
      "type": "VEC3"
    },
    {
      "bufferView": 21,
      "componentType": 5126,
      "count": 24,
      "type": "VEC2"
    },
    {
      "bufferView": 22,
      "componentType": 5123,
      "count": 24,
      "type": "SCALAR"
    },
    {
      "bufferView": 23,
      "componentType": 5126,
      "count": 12,
      "max": [
        -0.05,
        0.7000000000000001,
        -0.05
      ],
      "min": [
        -0.15000000000000002,
        0.29999999999999993,
        -0.15000000000000002
      ],
      "type": "VEC3"
    },
    {
      "bufferView": 24,
      "componentType": 5126,
      "count": 12,
      "type": "VEC3"
    },
    {
      "bufferView": 25,
      "componentType": 5123,
      "count": 12,
      "type": "SCALAR"
    },
    {
      "bufferView": 26,
      "componentType": 5126,
      "count": 24,
      "max": [
        -0.05,
        -0.05,
        0.7000000000000001
      ],
      "min": [
        -0.15000000000000002,
        -0.15000000000000002,
        0.29999999999999993
      ],
      "type": "VEC3"
    },
    {
      "bufferView": 27,
      "componentType": 5126,
      "count": 24,
      "type": "VEC3"
    },
    {
      "bufferView": 28,
      "componentType": 5126,
      "count": 24,
      "type": "VEC2"
    },
    {
      "bufferView": 29,
      "componentType": 5123,
      "count": 24,
      "type": "SCALAR"
    },
    {
      "bufferView": 30,
      "componentType": 5126,
      "count": 12,
      "max": [
        -0.05,
        -0.05,
        0.7000000000000001
      ],
      "min": [
        -0.15000000000000002,
        -0.15000000000000002,
        0.29999999999999993
      ],
      "type": "VEC3"
    },
    {
      "bufferView": 31,
      "componentType": 5126,
      "count": 12,
      "type": "VEC3"
    },
    {
      "bufferView": 32,
      "componentType": 5123,
      "count": 12,
      "type": "SCALAR"
    }
  ],
  "bufferViews": [
    {
      "buffer": 0,
      "byteLength": 28800,
      "byteOffset": 0,
      "target": 34962
    },
    {
      "buffer": 0,
      "byteLength": 28800,
      "byteOffset": 28800,
      "target": 34962
    },
    {
      "buffer": 0,
      "byteLength": 4800,
      "byteOffset": 57600,
      "target": 34963
    },
    {
      "buffer": 0,
      "byteLength": 2160,
      "byteOffset": 62400,
      "target": 34962
    },
    {
      "buffer": 0,
      "byteLength": 2160,
      "byteOffset": 64560,
      "target": 34962
    },
    {
      "buffer": 0,
      "byteLength": 360,
      "byteOffset": 66720,
      "target": 34963
    },
    {
      "buffer": 0,
      "byteLength": 2160,
      "byteOffset": 67080,
      "target": 34962
    },
    {
      "buffer": 0,
      "byteLength": 2160,
      "byteOffset": 69240,
      "target": 34962
    },
    {
      "buffer": 0,
      "byteLength": 360,
      "byteOffset": 71400,
      "target": 34963
    },
    {
      "buffer": 0,
      "byteLength": 2160,
      "byteOffset": 71760,
      "target": 34962
    },
    {
      "buffer": 0,
      "byteLength": 2160,
      "byteOffset": 73920,
      "target": 34962
    },
    {
      "buffer": 0,
      "byteLength": 360,
      "byteOffset": 76080,
      "target": 34963
    },
    {
      "buffer": 0,
      "byteLength": 288,
      "byteOffset": 76440,
      "target": 34962
    },
    {
      "buffer": 0,
      "byteLength": 288,
      "byteOffset": 76728,
      "target": 34962
    },
    {
      "buffer": 0,
      "byteLength": 192,
      "byteOffset": 77016,
      "target": 34962
    },
    {
      "buffer": 0,
      "byteLength": 48,
      "byteOffset": 77208,
      "target": 34963
    },
    {
      "buffer": 0,
      "byteLength": 144,
      "byteOffset": 77256,
      "target": 34962
    },
    {
      "buffer": 0,
      "byteLength": 432,
      "byteOffset": 77400,
      "target": 34962
    },
    {
      "buffer": 0,
      "byteLength": 24,
      "byteOffset": 77832,
      "target": 34963
    },
    {
      "buffer": 0,
      "byteLength": 288,
      "byteOffset": 77856,
      "target": 34962
    },
    {
      "buffer": 0,
      "byteLength": 288,
      "byteOffset": 78144,
      "target": 34962
    },
    {
      "buffer": 0,
      "byteLength": 192,
      "byteOffset": 78432,
      "target": 34962
    },
    {
      "buffer": 0,
      "byteLength": 48,
      "byteOffset": 78624,
      "target": 34963
    },
    {
      "buffer": 0,
      "byteLength": 144,
      "byteOffset": 78672,
      "target": 34962
    },
    {
      "buffer": 0,
      "byteLength": 432,
      "byteOffset": 78816,
      "target": 34962
    },
    {
      "buffer": 0,
      "byteLength": 24,
      "byteOffset": 79248,
      "target": 34963
    },
    {
      "buffer": 0,
      "byteLength": 288,
      "byteOffset": 79272,
      "target": 34962
    },
    {
      "buffer": 0,
      "byteLength": 288,
      "byteOffset": 79560,
      "target": 34962
    },
    {
      "buffer": 0,
      "byteLength": 192,
      "byteOffset": 79848,
      "target": 34962
    },
    {
      "buffer": 0,
      "byteLength": 48,
      "byteOffset": 80040,
      "target": 34963
    },
    {
      "buffer": 0,
      "byteLength": 144,
      "byteOffset": 80088,
      "target": 34962
    },
    {
      "buffer": 0,
      "byteLength": 432,
      "byteOffset": 80232,
      "target": 34962
    },
    {
      "buffer": 0,
      "byteLength": 24,
      "byteOffset": 80664,
      "target": 34963
    }
  ],
  "buffers": [
    {
      "byteLength": 80688,
      "uri": "scatter.bin"
    }
  ],
  "textures": [
    {
      "source": 0
    },
    {
      "source": 1
    },
    {
      "source": 2
    }
  ],
  "images": [
    {
      "mimeType": "image/png",
      "name": "mat_xtitle",
      "uri": "scatter_xtitle.png"
    },
    {
      "mimeType": "image/png",
      "name": "mat_ytitle",
      "uri": "scatter_ytitle.png"
    },
    {
      "mimeType": "image/png",
      "name": "mat_ztitle",
      "uri": "scatter_ztitle.png"
    }
  ]
}